<?xml version="1.0" encoding="UTF-8" standalone="no"?>
<!-- Created with Inkscape (http://www.inkscape.org/) -->

<svg
   xmlns:dc="http://purl.org/dc/elements/1.1/"
   xmlns:cc="http://creativecommons.org/ns#"
   xmlns:rdf="http://www.w3.org/1999/02/22-rdf-syntax-ns#"
   xmlns:svg="http://www.w3.org/2000/svg"
   xmlns="http://www.w3.org/2000/svg"
   xmlns:sodipodi="http://sodipodi.sourceforge.net/DTD/sodipodi-0.dtd"
   xmlns:inkscape="http://www.inkscape.org/namespaces/inkscape"
   width="19mm"
   height="23mm"
   viewBox="0 0 19 23"
   version="1.1"
   id="svg8"
   inkscape:version="0.92.3 (2405546, 2018-03-11)"
   sodipodi:docname="idoo.svg"
   inkscape:export-filename="/home/bds/Imagens/idoo.png"
   inkscape:export-xdpi="96"
   inkscape:export-ydpi="96">
  <defs
     id="defs2">
    <clipPath
       clipPathUnits="userSpaceOnUse"
       id="clipPath1414">
      <rect
         style="fill:#190000;fill-opacity:1;fill-rule:nonzero;stroke:none;stroke-width:22.44599915;stroke-linecap:round;stroke-linejoin:round;stroke-miterlimit:4;stroke-dasharray:none;stroke-opacity:1"
         id="rect1416"
         width="249.46428"
         height="249.46428"
         x="-957.79163"
         y="43" />
    </clipPath>
  </defs>
  <sodipodi:namedview
     id="base"
     pagecolor="#ffffff"
     bordercolor="#666666"
     borderopacity="1.0"
     inkscape:pageopacity="0.0"
     inkscape:pageshadow="2"
     inkscape:zoom="1.4"
     inkscape:cx="13.351343"
     inkscape:cy="65.890124"
     inkscape:document-units="mm"
     inkscape:current-layer="layer1"
     showgrid="false"
     inkscape:window-width="1600"
     inkscape:window-height="875"
     inkscape:window-x="1366"
     inkscape:window-y="0"
     inkscape:window-maximized="1" />
  <metadata
     id="metadata5">
    <rdf:RDF>
      <cc:Work
         rdf:about="">
        <dc:format>image/svg+xml</dc:format>
        <dc:type
           rdf:resource="http://purl.org/dc/dcmitype/StillImage" />
        <dc:title></dc:title>
      </cc:Work>
    </rdf:RDF>
  </metadata>
  <g
     inkscape:label="Camada 1"
     inkscape:groupmode="layer"
     id="layer1"
     transform="translate(0,-274)">
    <text
       xml:space="preserve"
       style="font-style:normal;font-weight:normal;font-size:10.58333302px;line-height:1.25;font-family:sans-serif;letter-spacing:0px;word-spacing:0px;fill:#ffffff;fill-opacity:1;stroke:none;stroke-width:0.26458332"
       x="73.327377"
       y="181.71727"
       id="text1025"><tspan
         sodipodi:role="line"
         id="tspan1023"
         x="73.327377"
         y="191.08104"
         style="fill:#ffffff;stroke-width:0.26458332" /></text>
    <g
       id="g950"
       transform="matrix(0.59490551,0,0,0.59490551,-61.609598,219.81279)">
      <path
         id="path88-5"
         d="m 110.37478,104.01449 c 0.39198,0.12959 0.8146,-0.0829 0.9439,-0.47487 1.17301,-3.54763 4.47314,-5.931008 8.21224,-5.931008 4.76821,0 8.6477,3.879188 8.6477,8.647708 0,3.68539 -1.6508,5.88723 -2.97703,7.65652 -0.96492,1.28684 -1.79819,2.39856 -1.79819,3.74669 0,0.0887 -0.001,0.17658 -0.003,0.26384 h -3.1221 v -1.71646 c 0,-0.41269 -0.33448,-0.74718 -0.74717,-0.74718 -0.4127,0 -0.74719,0.33449 -0.74719,0.74718 v 1.71646 h -3.12238 c -0.003,-0.0873 -0.003,-0.17511 -0.003,-0.26384 0,-1.34842 -0.83328,-2.45985 -1.79818,-3.74698 -0.97689,-1.30318 -2.08392,-2.78032 -2.63293,-4.87913 -0.10449,-0.39927 -0.5131,-0.63831 -0.91208,-0.53382 -0.39898,0.10419 -0.63802,0.5128 -0.53354,0.91179 0.62314,2.3825 1.87613,4.05431 2.88306,5.39748 0.83766,1.11756 1.49932,2.00016 1.49932,2.85066 0,0.35783 0.0152,0.7069 0.0446,1.03992 v 6.32007 c 0,0.0202 0.002,0.0397 0.003,0.0592 5.1e-4,0.005 3e-4,0.01 0.001,0.0143 0.003,0.0278 0.007,0.0546 0.0126,0.0814 v 5e-4 c 0.25946,1.21708 0.92375,2.32384 1.87115,3.11626 0.96549,0.80789 2.18549,1.25269 3.43496,1.25269 1.24949,0 2.4692,-0.4448 3.43498,-1.25269 0.94711,-0.79242 1.61169,-1.89918 1.87087,-3.11626 0,-2.9e-4 2.9e-4,-5e-4 2.9e-4,-0.001 0.006,-0.0266 0.01,-0.0534 0.0126,-0.0811 3e-4,-0.005 3e-4,-0.01 5e-4,-0.0143 0.002,-0.0198 0.003,-0.0394 0.003,-0.0595 v -6.31978 c 0.0295,-0.33302 0.045,-0.68209 0.045,-1.03992 0,-0.8505 0.66165,-1.7331 1.49931,-2.85065 1.38229,-1.84402 3.27562,-4.36924 3.27562,-8.55256 0,-5.59246 -4.54991,-10.142059 -10.14206,-10.142059 -4.385,0 -8.25515,2.795496 -9.631,6.956339 -0.12959,0.39168 0.0832,0.8143 0.47487,0.94389 z m 9.15614,24.03519 c -1.51917,0 -2.88919,-0.9188 -3.53829,-2.28327 h 7.07658 c -0.6494,1.36447 -2.01942,2.28327 -3.53829,2.28327 z m 3.82811,-3.77763 h -7.65623 v -1.67998 h 7.65623 z m 0,-3.17434 h -7.65623 v -1.67998 h 7.65623 z m 0,0"
         inkscape:connector-curvature="0"
         style="fill:#808080;fill-rule:evenodd;stroke-width:0.07471776" />
      <g
         transform="matrix(0.78424009,0,0,0.78424009,779.96376,8.4649038)"
         style="fill:#808080"
         id="g1141">
        <path
           style="fill:#808080;fill-rule:evenodd;stroke-width:0.09527408"
           inkscape:connector-curvature="0"
           d="m -853.83142,114.34251 c 0.18608,0.18609 0.42985,0.27913 0.67362,0.27913 0.24377,0 0.48753,-0.093 0.67361,-0.27913 0.37217,-0.37216 0.37217,-0.97544 0,-1.34723 l -1.79494,-1.79495 c -0.37217,-0.37216 -0.97545,-0.37216 -1.34761,0 -0.37179,0.37179 -0.37179,0.97507 0,1.34724 z m 0,0"
           id="path96-0" />
        <path
           style="fill:#808080;fill-rule:evenodd;stroke-width:0.09527408"
           inkscape:connector-curvature="0"
           d="m -855.60999,139.12755 c 0.24376,0 0.48753,-0.0931 0.67361,-0.27913 l 1.79495,-1.79495 c 0.37217,-0.37216 0.37217,-0.97507 0,-1.34723 -0.37216,-0.37217 -0.97544,-0.37217 -1.34723,0 l -1.79532,1.79495 c -0.3718,0.37216 -0.3718,0.97544 0,1.34723 0.18608,0.18608 0.42985,0.27913 0.67399,0.27913 z m 0,0"
           id="path98-2" />
        <path
           style="fill:#808080;fill-rule:evenodd;stroke-width:0.09527408"
           inkscape:connector-curvature="0"
           d="m -831.10409,114.62164 c 0.24377,0 0.48754,-0.093 0.67362,-0.27913 l 1.79495,-1.79494 c 0.37216,-0.37217 0.37216,-0.97545 0,-1.34761 -0.37179,-0.37217 -0.97507,-0.37179 -1.34723,0 l -1.79495,1.79495 c -0.37217,0.37216 -0.37217,0.97544 -3.8e-4,1.3476 0.18608,0.18609 0.43022,0.27913 0.67399,0.27913 z m 0,0"
           id="path100-0" />
        <path
           style="fill:#808080;fill-rule:evenodd;stroke-width:0.09527408"
           inkscape:connector-curvature="0"
           d="m -831.12046,135.70624 c -0.37217,0.37179 -0.37217,0.97507 0,1.34723 l 1.79495,1.79495 c 0.18608,0.18608 0.42985,0.27913 0.67361,0.27913 0.24377,0 0.48754,-0.0931 0.67362,-0.27913 0.37217,-0.37179 0.37217,-0.97507 0,-1.34723 l -1.79495,-1.79495 c -0.37216,-0.37217 -0.97544,-0.37217 -1.34723,0 z m 0,0"
           id="path102-1" />
      </g>
      <g
         transform="matrix(0.78424009,0,0,0.78424009,779.96376,8.4649038)"
         style="fill:#808080"
         id="g1146">
        <path
           style="fill:#808080;fill-rule:evenodd;stroke-width:0.09527408"
           inkscape:connector-curvature="0"
           d="m -842.13094,110.05406 c 0.52624,0 0.95274,-0.4265 0.95274,-0.95274 v -2.53853 c 0,-0.52624 -0.4265,-0.95274 -0.95274,-0.95274 -0.52624,0 -0.95275,0.4265 -0.95275,0.95274 v 2.53853 c 0,0.52624 0.42651,0.95274 0.95275,0.95274 z m 0,0"
           id="path90-3" />
        <path
           style="fill:#808080;fill-rule:evenodd;stroke-width:0.09527408"
           inkscape:connector-curvature="0"
           d="m -860.26391,125.6485 h 2.53853 c 0.52624,0 0.95274,-0.4265 0.95274,-0.95274 0,-0.52624 -0.4265,-0.95275 -0.95274,-0.95275 h -2.53853 c -0.52624,0 -0.95274,0.42651 -0.95274,0.95275 0,0.52624 0.4265,0.95274 0.95274,0.95274 z m 0,0"
           id="path92-4" />
        <path
           style="fill:#808080;fill-rule:evenodd;stroke-width:0.09527408"
           inkscape:connector-curvature="0"
           d="m -826.53651,125.6485 h 2.53853 c 0.52624,0 0.95274,-0.4265 0.95274,-0.95274 0,-0.52624 -0.4265,-0.95275 -0.95274,-0.95275 h -2.53853 c -0.52624,0 -0.95274,0.42651 -0.95274,0.95275 0,0.52624 0.4265,0.95274 0.95274,0.95274 z m 0,0"
           id="path104-9" />
      </g>
      <g
         transform="matrix(0.78424009,0,0,0.78424009,779.96376,8.4649038)"
         style="fill:#808080"
         id="g1151">
        <path
           style="fill:#808080;fill-rule:evenodd;stroke-width:0.09527408"
           inkscape:connector-curvature="0"
           d="m -837.76881,126.62059 c 0,-0.52624 -0.4265,-0.95274 -0.95274,-0.95274 h -6.81879 c -0.52624,0 -0.95274,0.4265 -0.95274,0.95274 0,0.52624 0.4265,0.95274 0.95274,0.95274 h 2.45665 v 2.1887 c 0,0.52624 0.42651,0.95274 0.95275,0.95274 0.52624,0 0.95274,-0.4265 0.95274,-0.95274 v -2.1887 h 2.45665 c 0.52624,0 0.95274,-0.4265 0.95274,-0.95274 z m 0,0"
           id="path94-9" />
        <path
           style="fill:#808080;fill-rule:evenodd;stroke-width:0.09527408"
           inkscape:connector-curvature="0"
           d="m -842.13094,132.62025 c -0.52476,0 -0.95275,0.42799 -0.95275,0.95274 0,0.52475 0.42799,0.95274 0.95275,0.95274 0.52475,0 0.95274,-0.42799 0.95274,-0.95274 0,-0.52475 -0.42799,-0.95274 -0.95274,-0.95274 z m 0,0"
           id="path106-6" />
        <path
           style="fill:#808080;fill-rule:evenodd;stroke-width:0.09527408"
           inkscape:connector-curvature="0"
           d="m -853.1578,124.69576 c 0,-0.52476 -0.42799,-0.95275 -0.95274,-0.95275 -0.52513,0 -0.95274,0.42799 -0.95274,0.95275 0,0.52475 0.42761,0.95274 0.95274,0.95274 0.52475,0 0.95274,-0.42799 0.95274,-0.95274 z m 0,0"
           id="path108-2" />
      </g>
    </g>
  </g>
</svg>
